<svg width="5531" height="3428" viewBox="0 0 5531 3428" fill="none" xmlns="http://www.w3.org/2000/svg">
<path fill-rule="evenodd" clip-rule="evenodd" d="M4327.49 1570.47C4158.49 1564.8 3966.69 1549 3756.03 1516.57C3961.76 1484.93 4149.56 1469.09 4315.65 1463.05C4292.94 1302.45 4247.85 1149.04 4183.48 1006.07C3962.88 1011.58 3682.62 1001 3357.41 950.98C3656.17 905.025 3916.93 892.389 4128.45 894.887C4016.26 687.695 3862.31 506.295 3677.8 362.017C3250.53 365.781 2996.31 305.7 2996.31 305.7C2996.31 305.7 3187.88 260.489 3517.79 250.986C3258.15 91.8738 2952.6 0 2625.53 0C2410.12 0 2204.09 39.9178 2014.31 112.559C2219.56 111.777 2468.63 125.455 2751.58 168.989C2354.87 230.002 2024.92 232.35 1788.82 218.373C1616.45 315.279 1462.61 441.07 1334.02 589.336C1547.71 586.205 1812.88 598.467 2117.46 645.317C1769.84 698.765 1473.55 707.188 1246.64 699.063C1085.51 918.927 975.942 1178.71 935.67 1460.85C1151.94 1456.9 1422.67 1468.61 1734.57 1516.57C1416.66 1565.47 1141.66 1576.69 923.379 1572.03C920.091 1615.31 918.41 1659.03 918.41 1703.15C918.41 1731.97 919.121 1760.55 920.54 1788.99H4330.48C4331.9 1760.55 4332.61 1731.97 4332.61 1703.15C4332.61 1658.5 4330.89 1614.26 4327.49 1570.47ZM2727.85 1258.06C2745.26 1269.32 2767.79 1269.32 2785.2 1258.06C2849.38 1216.58 2970.2 1200.89 2970.2 1200.89C2873.29 1189.67 2810.83 1210.54 2779.82 1225.82C2765.18 1233.01 2747.92 1233.01 2733.27 1225.82C2702.26 1210.54 2639.8 1189.67 2542.89 1200.89C2542.89 1200.89 2663.67 1216.58 2727.85 1258.06ZM2141.67 1057.09C2141.67 1057.09 2294.91 1076.96 2376.31 1129.62C2398.39 1143.9 2426.97 1143.9 2449.05 1129.62C2530.45 1076.96 2683.7 1057.09 2683.7 1057.09C2560.75 1042.82 2481.51 1069.32 2442.21 1088.7C2423.65 1097.87 2401.72 1097.87 2383.15 1088.7C2343.81 1069.32 2264.58 1042.82 2141.67 1057.09ZM1745.03 899.21C1745.03 899.21 1922.6 922.206 2016.93 983.257C2042.52 999.769 2075.62 999.769 2101.17 983.257C2195.54 922.206 2373.1 899.21 2373.1 899.21C2230.65 882.662 2138.83 913.373 2093.29 935.811C2071.73 946.433 2046.37 946.433 2024.85 935.811C1979.27 913.373 1887.44 882.662 1745.03 899.21Z" fill="#FDC82F"/>
<path d="M1651.72 3261.53C1666.83 3261.53 1679.73 3263.88 1690.41 3268.56C1701.09 3273.25 1709.69 3279.25 1716.2 3286.54C1722.97 3293.84 1727.92 3301.91 1731.05 3310.77C1734.18 3319.63 1735.74 3328.09 1735.74 3336.17C1735.74 3352.84 1732.35 3366.65 1725.58 3377.59C1719.07 3388.28 1710.6 3396.74 1700.18 3403C1689.76 3409.25 1678.03 3413.55 1665.01 3415.89C1652.24 3418.24 1639.74 3419.41 1627.49 3419.41H1498.14V3145.47H1595.06C1608.08 3145.21 1620.07 3146.64 1631.01 3149.76C1641.95 3152.63 1651.46 3156.93 1659.54 3162.66C1667.61 3168.13 1673.87 3174.91 1678.29 3182.98C1682.72 3190.8 1684.94 3199.66 1684.94 3209.56C1684.94 3218.93 1683.24 3226.62 1679.86 3232.61C1676.47 3238.6 1672.69 3243.42 1668.52 3247.07C1663.57 3251.24 1657.97 3254.37 1651.72 3256.45V3261.53ZM1534.09 3181.42V3247.07H1586.07C1592.84 3247.07 1599.88 3247.07 1607.17 3247.07C1614.47 3247.07 1621.24 3246.16 1627.49 3244.34C1633.74 3242.51 1638.82 3239.26 1642.73 3234.57C1646.9 3229.88 1648.98 3222.84 1648.98 3213.46C1648.98 3201.74 1644.56 3193.53 1635.7 3188.84C1627.1 3183.89 1614.99 3181.42 1599.35 3181.42H1534.09ZM1623.19 3383.46C1638.82 3383.46 1651.59 3382.41 1661.49 3380.33C1671.39 3377.99 1679.08 3374.73 1684.55 3370.56C1690.28 3366.39 1694.19 3361.44 1696.27 3355.71C1698.35 3349.72 1699.4 3343.21 1699.4 3336.17C1699.4 3316.89 1692.88 3303.21 1679.86 3295.14C1667.09 3287.06 1647.03 3283.02 1619.68 3283.02H1534.09V3383.07C1534.61 3383.07 1537.09 3383.07 1541.52 3383.07C1545.95 3383.07 1551.42 3383.07 1557.93 3383.07C1564.44 3383.07 1571.35 3383.2 1578.64 3383.46C1586.2 3383.46 1593.23 3383.46 1599.75 3383.46C1606.26 3383.46 1611.73 3383.46 1616.16 3383.46C1620.59 3383.46 1622.93 3383.46 1623.19 3383.46Z" fill="white"/>
<path d="M1651.72 3261.53C1666.83 3261.53 1679.73 3263.88 1690.41 3268.56C1701.09 3273.25 1709.69 3279.25 1716.2 3286.54C1722.97 3293.84 1727.92 3301.91 1731.05 3310.77C1734.18 3319.63 1735.74 3328.09 1735.74 3336.17C1735.74 3352.84 1732.35 3366.65 1725.58 3377.59C1719.07 3388.28 1710.6 3396.74 1700.18 3403C1689.76 3409.25 1678.03 3413.55 1665.01 3415.89C1652.24 3418.24 1639.74 3419.41 1627.49 3419.41H1498.14V3145.47H1595.06C1608.08 3145.21 1620.07 3146.64 1631.01 3149.76C1641.95 3152.63 1651.46 3156.93 1659.54 3162.66C1667.61 3168.13 1673.87 3174.91 1678.29 3182.98C1682.72 3190.8 1684.94 3199.66 1684.94 3209.56C1684.94 3218.93 1683.24 3226.62 1679.86 3232.61C1676.47 3238.6 1672.69 3243.42 1668.52 3247.07C1663.57 3251.24 1657.97 3254.37 1651.72 3256.45V3261.53ZM1534.09 3181.42V3247.07H1586.07C1592.84 3247.07 1599.88 3247.07 1607.17 3247.07C1614.47 3247.07 1621.24 3246.16 1627.49 3244.34C1633.74 3242.51 1638.82 3239.26 1642.73 3234.57C1646.9 3229.88 1648.98 3222.84 1648.98 3213.46C1648.98 3201.74 1644.56 3193.53 1635.7 3188.84C1627.1 3183.89 1614.99 3181.42 1599.35 3181.42H1534.09ZM1623.19 3383.46C1638.82 3383.46 1651.59 3382.41 1661.49 3380.33C1671.39 3377.99 1679.08 3374.73 1684.55 3370.56C1690.28 3366.39 1694.19 3361.44 1696.27 3355.71C1698.35 3349.72 1699.4 3343.21 1699.4 3336.17C1699.4 3316.89 1692.88 3303.21 1679.86 3295.14C1667.09 3287.06 1647.03 3283.02 1619.68 3283.02H1534.09V3383.07C1534.61 3383.07 1537.09 3383.07 1541.52 3383.07C1545.95 3383.07 1551.42 3383.07 1557.93 3383.07C1564.44 3383.07 1571.35 3383.2 1578.64 3383.46C1586.2 3383.46 1593.23 3383.46 1599.75 3383.46C1606.26 3383.46 1611.73 3383.46 1616.16 3383.46C1620.59 3383.46 1622.93 3383.46 1623.19 3383.46Z" fill="white"/>
<path d="M1651.72 3261.53C1666.83 3261.53 1679.73 3263.88 1690.41 3268.56C1701.09 3273.25 1709.69 3279.25 1716.2 3286.54C1722.97 3293.84 1727.92 3301.91 1731.05 3310.77C1734.18 3319.63 1735.74 3328.09 1735.74 3336.17C1735.74 3352.84 1732.35 3366.65 1725.58 3377.59C1719.07 3388.28 1710.6 3396.74 1700.18 3403C1689.76 3409.25 1678.03 3413.55 1665.01 3415.89C1652.24 3418.24 1639.74 3419.41 1627.49 3419.41H1498.14V3145.47H1595.06C1608.08 3145.21 1620.07 3146.64 1631.01 3149.76C1641.95 3152.63 1651.46 3156.93 1659.54 3162.66C1667.61 3168.13 1673.87 3174.91 1678.29 3182.98C1682.72 3190.8 1684.94 3199.66 1684.94 3209.56C1684.94 3218.93 1683.24 3226.62 1679.86 3232.61C1676.47 3238.6 1672.69 3243.42 1668.52 3247.07C1663.57 3251.24 1657.97 3254.37 1651.72 3256.45V3261.53ZM1534.09 3181.42V3247.07H1586.07C1592.84 3247.07 1599.88 3247.07 1607.17 3247.07C1614.47 3247.07 1621.24 3246.16 1627.49 3244.34C1633.74 3242.51 1638.82 3239.26 1642.73 3234.57C1646.9 3229.88 1648.98 3222.84 1648.98 3213.46C1648.98 3201.74 1644.56 3193.53 1635.7 3188.84C1627.1 3183.89 1614.99 3181.42 1599.35 3181.42H1534.09ZM1623.19 3383.46C1638.82 3383.46 1651.59 3382.41 1661.49 3380.33C1671.39 3377.99 1679.08 3374.73 1684.55 3370.56C1690.28 3366.39 1694.19 3361.44 1696.27 3355.71C1698.35 3349.72 1699.4 3343.21 1699.4 3336.17C1699.4 3316.89 1692.88 3303.21 1679.86 3295.14C1667.09 3287.06 1647.03 3283.02 1619.68 3283.02H1534.09V3383.07C1534.61 3383.07 1537.09 3383.07 1541.52 3383.07C1545.95 3383.07 1551.42 3383.07 1557.93 3383.07C1564.44 3383.07 1571.35 3383.2 1578.64 3383.46C1586.2 3383.46 1593.23 3383.46 1599.75 3383.46C1606.26 3383.46 1611.73 3383.46 1616.16 3383.46C1620.59 3383.46 1622.93 3383.46 1623.19 3383.46Z" fill="white"/>
<path d="M1651.72 3261.53C1666.83 3261.53 1679.73 3263.88 1690.41 3268.56C1701.09 3273.25 1709.69 3279.25 1716.2 3286.54C1722.97 3293.84 1727.92 3301.91 1731.05 3310.77C1734.18 3319.63 1735.74 3328.09 1735.74 3336.17C1735.74 3352.84 1732.35 3366.65 1725.58 3377.59C1719.07 3388.28 1710.6 3396.74 1700.18 3403C1689.76 3409.25 1678.03 3413.55 1665.01 3415.89C1652.24 3418.24 1639.74 3419.41 1627.49 3419.41H1498.14V3145.47H1595.06C1608.08 3145.21 1620.07 3146.64 1631.01 3149.76C1641.95 3152.63 1651.46 3156.93 1659.54 3162.66C1667.61 3168.13 1673.87 3174.91 1678.29 3182.98C1682.72 3190.8 1684.94 3199.66 1684.94 3209.56C1684.94 3218.93 1683.24 3226.62 1679.86 3232.61C1676.47 3238.6 1672.69 3243.42 1668.52 3247.07C1663.57 3251.24 1657.97 3254.37 1651.72 3256.45V3261.53ZM1534.09 3181.42V3247.07H1586.07C1592.84 3247.07 1599.88 3247.07 1607.17 3247.07C1614.47 3247.07 1621.24 3246.16 1627.49 3244.34C1633.74 3242.51 1638.82 3239.26 1642.73 3234.57C1646.9 3229.88 1648.98 3222.84 1648.98 3213.46C1648.98 3201.74 1644.56 3193.53 1635.7 3188.84C1627.1 3183.89 1614.99 3181.42 1599.35 3181.42H1534.09ZM1623.19 3383.46C1638.82 3383.46 1651.59 3382.41 1661.49 3380.33C1671.39 3377.99 1679.08 3374.73 1684.55 3370.56C1690.28 3366.39 1694.19 3361.44 1696.27 3355.71C1698.35 3349.72 1699.4 3343.21 1699.4 3336.17C1699.4 3316.89 1692.88 3303.21 1679.86 3295.14C1667.09 3287.06 1647.03 3283.02 1619.68 3283.02H1534.09V3383.07C1534.61 3383.07 1537.09 3383.07 1541.52 3383.07C1545.95 3383.07 1551.42 3383.07 1557.93 3383.07C1564.44 3383.07 1571.35 3383.2 1578.64 3383.46C1586.2 3383.46 1593.23 3383.46 1599.75 3383.46C1606.26 3383.46 1611.73 3383.46 1616.16 3383.46C1620.59 3383.46 1622.93 3383.46 1623.19 3383.46Z" fill="white"/>
<path d="M1782.92 3181.81V3265.83H1902.89V3301.78H1782.92V3385.41H1977.53V3419.41H1746.96V3145.86H1977.53V3181.81H1782.92Z" fill="white"/>
<path d="M1782.92 3181.81V3265.83H1902.89V3301.78H1782.92V3385.41H1977.53V3419.41H1746.96V3145.86H1977.53V3181.81H1782.92Z" fill="white"/>
<path d="M1782.92 3181.81V3265.83H1902.89V3301.78H1782.92V3385.41H1977.53V3419.41H1746.96V3145.86H1977.53V3181.81H1782.92Z" fill="white"/>
<path d="M1782.92 3181.81V3265.83H1902.89V3301.78H1782.92V3385.41H1977.53V3419.41H1746.96V3145.86H1977.53V3181.81H1782.92Z" fill="white"/>
<path d="M2211.5 3419.41H2173.2L2152.88 3361.18H2038.77L2018.06 3419.41H1979.76L2079.8 3145.86H2111.46L2211.5 3419.41ZM2139.99 3325.23L2100.52 3208.38H2091.92L2051.28 3325.23H2139.99Z" fill="white"/>
<path d="M2211.5 3419.41H2173.2L2152.88 3361.18H2038.77L2018.06 3419.41H1979.76L2079.8 3145.86H2111.46L2211.5 3419.41ZM2139.99 3325.23L2100.52 3208.38H2091.92L2051.28 3325.23H2139.99Z" fill="white"/>
<path d="M2211.5 3419.41H2173.2L2152.88 3361.18H2038.77L2018.06 3419.41H1979.76L2079.8 3145.86H2111.46L2211.5 3419.41ZM2139.99 3325.23L2100.52 3208.38H2091.92L2051.28 3325.23H2139.99Z" fill="white"/>
<path d="M2211.5 3419.41H2173.2L2152.88 3361.18H2038.77L2018.06 3419.41H1979.76L2079.8 3145.86H2111.46L2211.5 3419.41ZM2139.99 3325.23L2100.52 3208.38H2091.92L2051.28 3325.23H2139.99Z" fill="white"/>
<path d="M2427.69 3408.86C2405.54 3421.36 2376.75 3427.62 2341.32 3427.62C2291.82 3427.62 2255.22 3415.89 2231.51 3392.44C2208.06 3368.74 2196.34 3332.13 2196.34 3282.63C2196.34 3185.72 2244.67 3137.26 2341.32 3137.26C2371.54 3137.26 2398.25 3143.64 2421.43 3156.41L2403.85 3187.67C2386.65 3178.03 2365.81 3173.21 2341.32 3173.21C2303.28 3173.21 2275.54 3181.94 2258.08 3199.4C2240.89 3216.59 2232.29 3244.34 2232.29 3282.63C2232.29 3302.43 2234.25 3319.24 2238.15 3333.04C2242.32 3346.85 2248.7 3358.19 2257.3 3367.04C2266.16 3375.64 2277.49 3381.89 2291.3 3385.8C2305.11 3389.71 2321.78 3391.66 2341.32 3391.66C2370.5 3391.66 2393.3 3386.97 2409.71 3377.59L2427.69 3408.86Z" fill="white"/>
<path d="M2427.69 3408.86C2405.54 3421.36 2376.75 3427.62 2341.32 3427.62C2291.82 3427.62 2255.22 3415.89 2231.51 3392.44C2208.06 3368.74 2196.34 3332.13 2196.34 3282.63C2196.34 3185.72 2244.67 3137.26 2341.32 3137.26C2371.54 3137.26 2398.25 3143.64 2421.43 3156.41L2403.85 3187.67C2386.65 3178.03 2365.81 3173.21 2341.32 3173.21C2303.28 3173.21 2275.54 3181.94 2258.08 3199.4C2240.89 3216.59 2232.29 3244.34 2232.29 3282.63C2232.29 3302.43 2234.25 3319.24 2238.15 3333.04C2242.32 3346.85 2248.7 3358.19 2257.3 3367.04C2266.16 3375.64 2277.49 3381.89 2291.3 3385.8C2305.11 3389.71 2321.78 3391.66 2341.32 3391.66C2370.5 3391.66 2393.3 3386.97 2409.71 3377.59L2427.69 3408.86Z" fill="white"/>
<path d="M2427.69 3408.86C2405.54 3421.36 2376.75 3427.62 2341.32 3427.62C2291.82 3427.62 2255.22 3415.89 2231.51 3392.44C2208.06 3368.74 2196.34 3332.13 2196.34 3282.63C2196.34 3185.72 2244.67 3137.26 2341.32 3137.26C2371.54 3137.26 2398.25 3143.64 2421.43 3156.41L2403.85 3187.67C2386.65 3178.03 2365.81 3173.21 2341.32 3173.21C2303.28 3173.21 2275.54 3181.94 2258.08 3199.4C2240.89 3216.59 2232.29 3244.34 2232.29 3282.63C2232.29 3302.43 2234.25 3319.24 2238.15 3333.04C2242.32 3346.85 2248.7 3358.19 2257.3 3367.04C2266.16 3375.64 2277.49 3381.89 2291.3 3385.8C2305.11 3389.71 2321.78 3391.66 2341.32 3391.66C2370.5 3391.66 2393.3 3386.97 2409.71 3377.59L2427.69 3408.86Z" fill="white"/>
<path d="M2427.69 3408.86C2405.54 3421.36 2376.75 3427.62 2341.32 3427.62C2291.82 3427.62 2255.22 3415.89 2231.51 3392.44C2208.06 3368.74 2196.34 3332.13 2196.34 3282.63C2196.34 3185.72 2244.67 3137.26 2341.32 3137.26C2371.54 3137.26 2398.25 3143.64 2421.43 3156.41L2403.85 3187.67C2386.65 3178.03 2365.81 3173.21 2341.32 3173.21C2303.28 3173.21 2275.54 3181.94 2258.08 3199.4C2240.89 3216.59 2232.29 3244.34 2232.29 3282.63C2232.29 3302.43 2234.25 3319.24 2238.15 3333.04C2242.32 3346.85 2248.7 3358.19 2257.3 3367.04C2266.16 3375.64 2277.49 3381.89 2291.3 3385.8C2305.11 3389.71 2321.78 3391.66 2341.32 3391.66C2370.5 3391.66 2393.3 3386.97 2409.71 3377.59L2427.69 3408.86Z" fill="white"/>
<path d="M2667.52 3145.86V3419.41H2631.57V3303.34H2472.52V3419.41H2436.57V3145.86H2472.52V3267.39H2631.57V3145.86H2667.52Z" fill="white"/>
<path d="M2667.52 3145.86V3419.41H2631.57V3303.34H2472.52V3419.41H2436.57V3145.86H2472.52V3267.39H2631.57V3145.86H2667.52Z" fill="white"/>
<path d="M2667.52 3145.86V3419.41H2631.57V3303.34H2472.52V3419.41H2436.57V3145.86H2472.52V3267.39H2631.57V3145.86H2667.52Z" fill="white"/>
<path d="M2667.52 3145.86V3419.41H2631.57V3303.34H2472.52V3419.41H2436.57V3145.86H2472.52V3267.39H2631.57V3145.86H2667.52Z" fill="white"/>
<path d="M3053.94 3408.86C3031.79 3421.36 3003.01 3427.62 2967.57 3427.62C2918.07 3427.62 2881.47 3415.89 2857.76 3392.44C2834.32 3368.74 2822.59 3332.13 2822.59 3282.63C2822.59 3185.72 2870.92 3137.26 2967.57 3137.26C2997.8 3137.26 3024.5 3143.64 3047.69 3156.41L3030.1 3187.67C3012.91 3178.03 2992.06 3173.21 2967.57 3173.21C2929.54 3173.21 2901.79 3181.94 2884.34 3199.4C2867.14 3216.59 2858.54 3244.34 2858.54 3282.63C2858.54 3302.43 2860.5 3319.24 2864.41 3333.04C2868.57 3346.85 2874.96 3358.19 2883.55 3367.04C2892.41 3375.64 2903.75 3381.89 2917.55 3385.8C2931.36 3389.71 2948.03 3391.66 2967.57 3391.66C2996.75 3391.66 3019.55 3386.97 3035.96 3377.59L3053.94 3408.86Z" fill="white"/>
<path d="M3053.94 3408.86C3031.79 3421.36 3003.01 3427.62 2967.57 3427.62C2918.07 3427.62 2881.47 3415.89 2857.76 3392.44C2834.32 3368.74 2822.59 3332.13 2822.59 3282.63C2822.59 3185.72 2870.92 3137.26 2967.57 3137.26C2997.8 3137.26 3024.5 3143.64 3047.69 3156.41L3030.1 3187.67C3012.91 3178.03 2992.06 3173.21 2967.57 3173.21C2929.54 3173.21 2901.79 3181.94 2884.34 3199.4C2867.14 3216.59 2858.54 3244.34 2858.54 3282.63C2858.54 3302.43 2860.5 3319.24 2864.41 3333.04C2868.57 3346.85 2874.96 3358.19 2883.55 3367.04C2892.41 3375.64 2903.75 3381.89 2917.55 3385.8C2931.36 3389.71 2948.03 3391.66 2967.57 3391.66C2996.75 3391.66 3019.55 3386.97 3035.96 3377.59L3053.94 3408.86Z" fill="white"/>
<path d="M3053.94 3408.86C3031.79 3421.36 3003.01 3427.62 2967.57 3427.62C2918.07 3427.62 2881.47 3415.89 2857.76 3392.44C2834.32 3368.74 2822.59 3332.13 2822.59 3282.63C2822.59 3185.72 2870.92 3137.26 2967.57 3137.26C2997.8 3137.26 3024.5 3143.64 3047.69 3156.41L3030.1 3187.67C3012.91 3178.03 2992.06 3173.21 2967.57 3173.21C2929.54 3173.21 2901.79 3181.94 2884.34 3199.4C2867.14 3216.59 2858.54 3244.34 2858.54 3282.63C2858.54 3302.43 2860.5 3319.24 2864.41 3333.04C2868.57 3346.85 2874.96 3358.19 2883.55 3367.04C2892.41 3375.64 2903.75 3381.89 2917.55 3385.8C2931.36 3389.71 2948.03 3391.66 2967.57 3391.66C2996.75 3391.66 3019.55 3386.97 3035.96 3377.59L3053.94 3408.86Z" fill="white"/>
<path d="M3053.94 3408.86C3031.79 3421.36 3003.01 3427.62 2967.57 3427.62C2918.07 3427.62 2881.47 3415.89 2857.76 3392.44C2834.32 3368.74 2822.59 3332.13 2822.59 3282.63C2822.59 3185.72 2870.92 3137.26 2967.57 3137.26C2997.8 3137.26 3024.5 3143.64 3047.69 3156.41L3030.1 3187.67C3012.91 3178.03 2992.06 3173.21 2967.57 3173.21C2929.54 3173.21 2901.79 3181.94 2884.34 3199.4C2867.14 3216.59 2858.54 3244.34 2858.54 3282.63C2858.54 3302.43 2860.5 3319.24 2864.41 3333.04C2868.57 3346.85 2874.96 3358.19 2883.55 3367.04C2892.41 3375.64 2903.75 3381.89 2917.55 3385.8C2931.36 3389.71 2948.03 3391.66 2967.57 3391.66C2996.75 3391.66 3019.55 3386.97 3035.96 3377.59L3053.94 3408.86Z" fill="white"/>
<path d="M3293.38 3383.85V3419.8H3062.82V3145.86H3098.77V3383.85H3293.38Z" fill="white"/>
<path d="M3293.38 3383.85V3419.8H3062.82V3145.86H3098.77V3383.85H3293.38Z" fill="white"/>
<path d="M3293.38 3383.85V3419.8H3062.82V3145.86H3098.77V3383.85H3293.38Z" fill="white"/>
<path d="M3293.38 3383.85V3419.8H3062.82V3145.86H3098.77V3383.85H3293.38Z" fill="white"/>
<path d="M3530.73 3145.86V3340.47C3530.73 3357.66 3527.6 3371.86 3521.35 3383.07C3515.1 3394.27 3506.76 3403.26 3496.34 3410.03C3486.18 3416.54 3474.33 3421.1 3460.78 3423.71C3447.23 3426.57 3433.03 3428.01 3418.18 3428.01C3402.55 3428.01 3387.57 3426.96 3373.24 3424.88C3359.17 3422.8 3346.67 3418.63 3335.73 3412.37C3324.79 3406.12 3316.06 3397.26 3309.54 3385.8C3303.03 3374.34 3299.77 3359.23 3299.77 3340.47V3145.86H3335.73V3340.47C3335.73 3349.07 3336.77 3356.62 3338.85 3363.14C3340.94 3369.65 3344.85 3375.12 3350.58 3379.55C3356.57 3383.72 3364.91 3386.84 3375.59 3388.93C3386.53 3391.01 3400.73 3392.05 3418.18 3392.05C3435.12 3392.05 3448.53 3390.62 3458.43 3387.76C3468.6 3384.63 3476.28 3380.72 3481.49 3376.03C3486.96 3371.08 3490.48 3365.48 3492.04 3359.23C3493.87 3352.97 3494.78 3346.72 3494.78 3340.47V3145.86H3530.73Z" fill="white"/>
<path d="M3530.73 3145.86V3340.47C3530.73 3357.66 3527.6 3371.86 3521.35 3383.07C3515.1 3394.27 3506.76 3403.26 3496.34 3410.03C3486.18 3416.54 3474.33 3421.1 3460.78 3423.71C3447.23 3426.57 3433.03 3428.01 3418.18 3428.01C3402.55 3428.01 3387.57 3426.96 3373.24 3424.88C3359.17 3422.8 3346.67 3418.63 3335.73 3412.37C3324.79 3406.12 3316.06 3397.26 3309.54 3385.8C3303.03 3374.34 3299.77 3359.23 3299.77 3340.47V3145.86H3335.73V3340.47C3335.73 3349.07 3336.77 3356.62 3338.85 3363.14C3340.94 3369.65 3344.85 3375.12 3350.58 3379.55C3356.57 3383.72 3364.91 3386.84 3375.59 3388.93C3386.53 3391.01 3400.73 3392.05 3418.18 3392.05C3435.12 3392.05 3448.53 3390.62 3458.43 3387.76C3468.6 3384.63 3476.28 3380.72 3481.49 3376.03C3486.96 3371.08 3490.48 3365.48 3492.04 3359.23C3493.87 3352.97 3494.78 3346.72 3494.78 3340.47V3145.86H3530.73Z" fill="white"/>
<path d="M3530.73 3145.86V3340.47C3530.73 3357.66 3527.6 3371.86 3521.35 3383.07C3515.1 3394.27 3506.76 3403.26 3496.34 3410.03C3486.18 3416.54 3474.33 3421.1 3460.78 3423.71C3447.23 3426.57 3433.03 3428.01 3418.18 3428.01C3402.55 3428.01 3387.57 3426.96 3373.24 3424.88C3359.17 3422.8 3346.67 3418.63 3335.73 3412.37C3324.79 3406.12 3316.06 3397.26 3309.54 3385.8C3303.03 3374.34 3299.77 3359.23 3299.77 3340.47V3145.86H3335.73V3340.47C3335.73 3349.07 3336.77 3356.62 3338.85 3363.14C3340.94 3369.65 3344.85 3375.12 3350.58 3379.55C3356.57 3383.72 3364.91 3386.84 3375.59 3388.93C3386.53 3391.01 3400.73 3392.05 3418.18 3392.05C3435.12 3392.05 3448.53 3390.62 3458.43 3387.76C3468.6 3384.63 3476.28 3380.72 3481.49 3376.03C3486.96 3371.08 3490.48 3365.48 3492.04 3359.23C3493.87 3352.97 3494.78 3346.72 3494.78 3340.47V3145.86H3530.73Z" fill="white"/>
<path d="M3530.73 3145.86V3340.47C3530.73 3357.66 3527.6 3371.86 3521.35 3383.07C3515.1 3394.27 3506.76 3403.26 3496.34 3410.03C3486.18 3416.54 3474.33 3421.1 3460.78 3423.71C3447.23 3426.57 3433.03 3428.01 3418.18 3428.01C3402.55 3428.01 3387.57 3426.96 3373.24 3424.88C3359.17 3422.8 3346.67 3418.63 3335.73 3412.37C3324.79 3406.12 3316.06 3397.26 3309.54 3385.8C3303.03 3374.34 3299.77 3359.23 3299.77 3340.47V3145.86H3335.73V3340.47C3335.73 3349.07 3336.77 3356.62 3338.85 3363.14C3340.94 3369.65 3344.85 3375.12 3350.58 3379.55C3356.57 3383.72 3364.91 3386.84 3375.59 3388.93C3386.53 3391.01 3400.73 3392.05 3418.18 3392.05C3435.12 3392.05 3448.53 3390.62 3458.43 3387.76C3468.6 3384.63 3476.28 3380.72 3481.49 3376.03C3486.96 3371.08 3490.48 3365.48 3492.04 3359.23C3493.87 3352.97 3494.78 3346.72 3494.78 3340.47V3145.86H3530.73Z" fill="white"/>
<path d="M3705.65 3261.53C3720.76 3261.53 3733.65 3263.88 3744.34 3268.56C3755.02 3273.25 3763.61 3279.25 3770.13 3286.54C3776.9 3293.84 3781.85 3301.91 3784.98 3310.77C3788.1 3319.63 3789.67 3328.09 3789.67 3336.17C3789.67 3352.84 3786.28 3366.65 3779.51 3377.59C3772.99 3388.28 3764.53 3396.74 3754.11 3403C3743.68 3409.25 3731.96 3413.55 3718.93 3415.89C3706.17 3418.24 3693.66 3419.41 3681.42 3419.41H3552.07V3145.47H3648.98C3662.01 3145.21 3673.99 3146.64 3684.94 3149.76C3695.88 3152.63 3705.39 3156.93 3713.46 3162.66C3721.54 3168.13 3727.79 3174.91 3732.22 3182.98C3736.65 3190.8 3738.86 3199.66 3738.86 3209.56C3738.86 3218.93 3737.17 3226.62 3733.78 3232.61C3730.4 3238.6 3726.62 3243.42 3722.45 3247.07C3717.5 3251.24 3711.9 3254.37 3705.65 3256.45V3261.53ZM3588.02 3181.42V3247.07H3640C3646.77 3247.07 3653.8 3247.07 3661.1 3247.07C3668.39 3247.07 3675.17 3246.16 3681.42 3244.34C3687.67 3242.51 3692.75 3239.26 3696.66 3234.57C3700.83 3229.88 3702.91 3222.84 3702.91 3213.46C3702.91 3201.74 3698.48 3193.53 3689.63 3188.84C3681.03 3183.89 3668.91 3181.42 3653.28 3181.42H3588.02ZM3677.12 3383.46C3692.75 3383.46 3705.52 3382.41 3715.42 3380.33C3725.32 3377.99 3733 3374.73 3738.47 3370.56C3744.21 3366.39 3748.11 3361.44 3750.2 3355.71C3752.28 3349.72 3753.32 3343.21 3753.32 3336.17C3753.32 3316.89 3746.81 3303.21 3733.78 3295.14C3721.02 3287.06 3700.96 3283.02 3673.6 3283.02H3588.02V3383.07C3588.54 3383.07 3591.02 3383.07 3595.45 3383.07C3599.87 3383.07 3605.35 3383.07 3611.86 3383.07C3618.37 3383.07 3625.28 3383.2 3632.57 3383.46C3640.13 3383.46 3647.16 3383.46 3653.67 3383.46C3660.19 3383.46 3665.66 3383.46 3670.09 3383.46C3674.51 3383.46 3676.86 3383.46 3677.12 3383.46Z" fill="white"/>
<path d="M3705.65 3261.53C3720.76 3261.53 3733.65 3263.88 3744.34 3268.56C3755.02 3273.25 3763.61 3279.25 3770.13 3286.54C3776.9 3293.84 3781.85 3301.91 3784.98 3310.77C3788.1 3319.63 3789.67 3328.09 3789.67 3336.17C3789.67 3352.84 3786.28 3366.65 3779.51 3377.59C3772.99 3388.28 3764.53 3396.74 3754.11 3403C3743.68 3409.25 3731.96 3413.55 3718.93 3415.89C3706.17 3418.24 3693.66 3419.41 3681.42 3419.41H3552.07V3145.47H3648.98C3662.01 3145.21 3673.99 3146.64 3684.94 3149.76C3695.88 3152.63 3705.39 3156.93 3713.46 3162.66C3721.54 3168.13 3727.79 3174.91 3732.22 3182.98C3736.65 3190.8 3738.86 3199.66 3738.86 3209.56C3738.86 3218.93 3737.17 3226.62 3733.78 3232.61C3730.4 3238.6 3726.62 3243.42 3722.45 3247.07C3717.5 3251.24 3711.9 3254.37 3705.65 3256.45V3261.53ZM3588.02 3181.42V3247.07H3640C3646.77 3247.07 3653.8 3247.07 3661.1 3247.07C3668.39 3247.07 3675.17 3246.16 3681.42 3244.34C3687.67 3242.51 3692.75 3239.26 3696.66 3234.57C3700.83 3229.88 3702.91 3222.84 3702.91 3213.46C3702.91 3201.74 3698.48 3193.53 3689.63 3188.84C3681.03 3183.89 3668.91 3181.42 3653.28 3181.42H3588.02ZM3677.12 3383.46C3692.75 3383.46 3705.52 3382.41 3715.42 3380.33C3725.32 3377.99 3733 3374.73 3738.47 3370.56C3744.21 3366.39 3748.11 3361.44 3750.2 3355.71C3752.28 3349.72 3753.32 3343.21 3753.32 3336.17C3753.32 3316.89 3746.81 3303.21 3733.78 3295.14C3721.02 3287.06 3700.96 3283.02 3673.6 3283.02H3588.02V3383.07C3588.54 3383.07 3591.02 3383.07 3595.45 3383.07C3599.87 3383.07 3605.35 3383.07 3611.86 3383.07C3618.37 3383.07 3625.28 3383.2 3632.57 3383.46C3640.13 3383.46 3647.16 3383.46 3653.67 3383.46C3660.19 3383.46 3665.66 3383.46 3670.09 3383.46C3674.51 3383.46 3676.86 3383.46 3677.12 3383.46Z" fill="white"/>
<path d="M3705.65 3261.53C3720.76 3261.53 3733.65 3263.88 3744.34 3268.56C3755.02 3273.25 3763.61 3279.25 3770.13 3286.54C3776.9 3293.84 3781.85 3301.91 3784.98 3310.77C3788.1 3319.63 3789.67 3328.09 3789.67 3336.17C3789.67 3352.84 3786.28 3366.65 3779.51 3377.59C3772.99 3388.28 3764.53 3396.74 3754.11 3403C3743.68 3409.25 3731.96 3413.55 3718.93 3415.89C3706.17 3418.24 3693.66 3419.41 3681.42 3419.41H3552.07V3145.47H3648.98C3662.01 3145.21 3673.99 3146.64 3684.94 3149.76C3695.88 3152.63 3705.39 3156.93 3713.46 3162.66C3721.54 3168.13 3727.79 3174.91 3732.22 3182.98C3736.65 3190.8 3738.86 3199.66 3738.86 3209.56C3738.86 3218.93 3737.17 3226.62 3733.78 3232.61C3730.4 3238.6 3726.62 3243.42 3722.45 3247.07C3717.5 3251.24 3711.9 3254.37 3705.65 3256.45V3261.53ZM3588.02 3181.42V3247.07H3640C3646.77 3247.07 3653.8 3247.07 3661.1 3247.07C3668.39 3247.07 3675.17 3246.16 3681.42 3244.34C3687.67 3242.51 3692.75 3239.26 3696.66 3234.57C3700.83 3229.88 3702.91 3222.84 3702.91 3213.46C3702.91 3201.74 3698.48 3193.53 3689.63 3188.84C3681.03 3183.89 3668.91 3181.42 3653.28 3181.42H3588.02ZM3677.12 3383.46C3692.75 3383.46 3705.52 3382.41 3715.42 3380.33C3725.32 3377.99 3733 3374.73 3738.47 3370.56C3744.21 3366.39 3748.11 3361.44 3750.2 3355.71C3752.28 3349.72 3753.32 3343.21 3753.32 3336.17C3753.32 3316.89 3746.81 3303.21 3733.78 3295.14C3721.02 3287.06 3700.96 3283.02 3673.6 3283.02H3588.02V3383.07C3588.54 3383.07 3591.02 3383.07 3595.45 3383.07C3599.87 3383.07 3605.35 3383.07 3611.86 3383.07C3618.37 3383.07 3625.28 3383.2 3632.57 3383.46C3640.13 3383.46 3647.16 3383.46 3653.67 3383.46C3660.19 3383.46 3665.66 3383.46 3670.09 3383.46C3674.51 3383.46 3676.86 3383.46 3677.12 3383.46Z" fill="white"/>
<path d="M3705.65 3261.53C3720.76 3261.53 3733.65 3263.88 3744.34 3268.56C3755.02 3273.25 3763.61 3279.25 3770.13 3286.54C3776.9 3293.84 3781.85 3301.91 3784.98 3310.77C3788.1 3319.63 3789.67 3328.09 3789.67 3336.17C3789.67 3352.84 3786.28 3366.65 3779.51 3377.59C3772.99 3388.28 3764.53 3396.74 3754.11 3403C3743.68 3409.25 3731.96 3413.55 3718.93 3415.89C3706.17 3418.24 3693.66 3419.41 3681.42 3419.41H3552.07V3145.47H3648.98C3662.01 3145.21 3673.99 3146.64 3684.94 3149.76C3695.88 3152.63 3705.39 3156.93 3713.46 3162.66C3721.54 3168.13 3727.79 3174.91 3732.22 3182.98C3736.65 3190.8 3738.86 3199.66 3738.86 3209.56C3738.86 3218.93 3737.17 3226.62 3733.78 3232.61C3730.4 3238.6 3726.62 3243.42 3722.45 3247.07C3717.5 3251.24 3711.9 3254.37 3705.65 3256.45V3261.53ZM3588.02 3181.42V3247.07H3640C3646.77 3247.07 3653.8 3247.07 3661.1 3247.07C3668.39 3247.07 3675.17 3246.16 3681.42 3244.34C3687.67 3242.51 3692.75 3239.26 3696.66 3234.57C3700.83 3229.88 3702.91 3222.84 3702.91 3213.46C3702.91 3201.74 3698.48 3193.53 3689.63 3188.84C3681.03 3183.89 3668.91 3181.42 3653.28 3181.42H3588.02ZM3677.12 3383.46C3692.75 3383.46 3705.52 3382.41 3715.42 3380.33C3725.32 3377.99 3733 3374.73 3738.47 3370.56C3744.21 3366.39 3748.11 3361.44 3750.2 3355.71C3752.28 3349.72 3753.32 3343.21 3753.32 3336.17C3753.32 3316.89 3746.81 3303.21 3733.78 3295.14C3721.02 3287.06 3700.96 3283.02 3673.6 3283.02H3588.02V3383.07C3588.54 3383.07 3591.02 3383.07 3595.45 3383.07C3599.87 3383.07 3605.35 3383.07 3611.86 3383.07C3618.37 3383.07 3625.28 3383.2 3632.57 3383.46C3640.13 3383.46 3647.16 3383.46 3653.67 3383.46C3660.19 3383.46 3665.66 3383.46 3670.09 3383.46C3674.51 3383.46 3676.86 3383.46 3677.12 3383.46Z" fill="white"/>
<path fill-rule="evenodd" clip-rule="evenodd" d="M4787.2 1817.16H468.992V1797.62H4787.2V1817.16Z" fill="white"/>
<path fill-rule="evenodd" clip-rule="evenodd" d="M947.698 755.975C952.238 747.644 964.213 747.684 968.698 756.044L968.826 756.284C975.706 761.923 984.369 767.981 993.22 774.17C1006.66 783.567 1020.53 793.265 1029.24 802.256L1034.3 781.539L1032.52 805.683C1048.92 822.85 1063.43 840.109 1076.15 856.719L1081.24 835.848L1079.4 860.98C1091.92 877.621 1102.59 893.491 1111.54 907.91L1116.94 885.772L1114.91 913.374C1137.73 950.918 1148.22 977.007 1148.22 977.007C1138.92 843.073 1079.99 785.46 1030.59 760.637C1065.14 771.073 1098.29 782.774 1129.51 795.556L1122.58 754.709L1138.04 799.107C1180.48 816.86 1219.6 836.249 1255.05 855.886L1248.06 814.699L1264.16 860.949C1299.24 880.802 1330.49 900.747 1357.53 919.395L1350.11 875.707L1367.78 926.496C1437.35 975.494 1476.21 1013.78 1476.21 1013.78C1294.12 662.548 1044.2 714.171 977.474 735.628C977.136 733.714 976.83 732.047 976.585 730.781C1022 699.412 1067.94 672.829 1112.86 650.692L1077.99 628.709L1121.14 646.678C1162.6 626.641 1203.01 610.154 1241.16 596.661L1206.02 574.493L1251 593.203C1289.09 580.112 1324.66 569.924 1356.49 562.051L1319.23 538.524L1368.6 559.087C1451.25 539.543 1505.46 535.9 1505.46 535.9C1120.46 437.595 993.297 664.771 966.342 726.706H964.226C975.848 670.977 991.426 618.49 1009.36 570.109L969.01 578.26L1012.62 561.464C1029.05 518.239 1047.14 478.257 1065.64 442.04L1024.94 450.284L1070.42 432.747C1089.09 396.84 1107.98 364.823 1125.71 337.066L1082.59 345.804L1132.48 326.538C1179.13 255.125 1216.02 214.926 1216.02 214.926C869.38 410.085 932.151 663.042 954.904 726.706H954.444C927.459 664.771 800.323 437.595 415.294 535.9C415.294 535.9 469.541 539.543 552.182 559.087L601.553 538.524L564.264 562.051C596.094 569.924 631.696 580.112 669.752 593.203L714.737 574.493L679.595 596.661C717.742 610.154 758.189 626.641 799.617 646.678L842.793 628.709L807.927 650.692C852.238 672.551 897.561 698.733 942.362 729.515L942.294 730.118C942.102 731.795 941.913 733.453 941.749 735.135C872.753 713.43 625.257 665.265 444.58 1013.78C444.58 1013.78 483.432 975.494 552.98 926.496L570.643 875.707L563.253 919.395C590.299 900.747 621.516 880.802 656.627 860.949L672.726 814.699L665.735 855.886C701.153 836.249 740.312 816.86 782.752 799.107L798.207 754.709L791.246 795.556C820.991 783.392 852.422 772.184 885.172 762.15C836.354 787.714 779.532 845.635 770.394 977.007C770.394 977.007 780.881 950.918 803.696 913.374L801.672 885.772L807.069 907.91C816.054 893.491 826.694 877.621 839.206 860.98L837.366 835.848L842.456 856.719C855.182 840.109 869.687 822.85 886.092 805.683L884.314 781.539L889.374 802.256C899.023 792.302 912.956 782.04 926.486 772.074C933.94 766.584 941.272 761.184 947.698 755.975Z" fill="white"/>
<path d="M759.94 1797.62C925.674 1356.66 982.998 858.998 968.826 756.284L968.698 756.044C964.213 747.684 952.238 747.644 947.698 755.975C899.355 1218.5 748.945 1591.13 649.737 1797.62H759.94Z" fill="white"/>
<path fill-rule="evenodd" clip-rule="evenodd" d="M363.062 1154.34C363.022 1153.94 362.977 1153.54 362.933 1153.13L363.062 1154.34Z" fill="white"/>
<path fill-rule="evenodd" clip-rule="evenodd" d="M345.746 1169.11L359.362 1168.92C363.537 1172.32 368.314 1175.84 373.17 1179.41C381.829 1185.79 390.737 1192.35 396.926 1198.72L400.177 1185.38L399.042 1200.94C409.591 1211.99 418.944 1223.11 427.131 1233.82L430.443 1220.36L429.247 1236.57C437.312 1247.28 444.181 1257.54 449.946 1266.8L453.442 1252.53L452.123 1270.32C466.812 1294.52 473.589 1311.32 473.589 1311.32C467.701 1226.69 431.087 1189.36 399.625 1172.88C420.722 1179.36 440.992 1186.59 460.127 1194.43L455.65 1168.12L465.616 1196.71C492.969 1208.14 518.175 1220.64 541.021 1233.27L536.513 1206.75L546.878 1236.54C569.478 1249.35 589.594 1262.17 607.042 1274.21L602.258 1246.05L613.635 1278.78C658.467 1310.33 683.49 1335 683.49 1335C567.086 1110.48 407.628 1141.51 363.164 1155.49C363.151 1155.31 363.136 1155.14 363.121 1154.96C363.103 1154.75 363.083 1154.55 363.062 1154.34C363.022 1153.94 362.977 1153.54 362.933 1153.13C362.886 1152.71 362.839 1152.28 362.796 1151.85C391.652 1132.03 420.845 1115.17 449.394 1101.09L426.947 1086.92L454.73 1098.5C481.439 1085.59 507.473 1074.97 532.066 1066.27L509.436 1051.97L538.414 1064.07C562.946 1055.61 585.852 1049.04 606.367 1043.97L582.357 1028.82L614.156 1042.06C667.421 1029.46 702.348 1027.12 702.348 1027.12C454.3 963.793 372.364 1110.17 355.007 1150.06H354.7C369.358 1109.06 409.805 946.071 186.473 820.349C186.473 820.349 210.238 846.222 240.29 892.256L272.457 904.637L244.644 899.018C256.082 916.925 268.256 937.549 280.277 960.675L309.562 971.975L283.374 966.664C295.272 990.006 306.925 1015.76 317.504 1043.57L345.593 1054.44L319.62 1049.16C331.18 1080.35 341.208 1114.15 348.69 1150.06H347.341C329.954 1110.17 248.048 963.793 0 1027.12C0 1027.12 34.9273 1029.46 88.1615 1042.06L119.992 1028.82L95.9504 1043.97C116.465 1049.04 139.403 1055.61 163.934 1064.07L192.913 1051.97L170.251 1066.27C194.845 1074.97 220.879 1085.59 247.588 1098.5L275.401 1086.92L252.924 1101.09C281.871 1115.36 311.494 1132.49 340.717 1152.68C340.564 1153.52 340.38 1154.57 340.165 1155.8C297.173 1142 136.152 1108.72 18.8589 1335C18.8589 1335 43.8815 1310.33 88.6829 1278.78L100.09 1246.05L95.3066 1274.21C112.724 1262.17 132.84 1249.35 155.471 1236.54L165.836 1206.75L161.328 1233.27C184.143 1220.64 209.38 1208.14 236.702 1196.71L246.668 1168.12L242.191 1194.43C262.338 1186.18 283.681 1178.65 305.944 1171.92C274.113 1187.91 236.15 1225.02 230.14 1311.32C230.14 1311.32 236.917 1294.52 251.605 1270.32L250.287 1252.53L253.783 1266.8C259.548 1257.54 266.416 1247.28 274.481 1236.57L273.285 1220.36L276.597 1233.82C284.785 1223.11 294.137 1211.99 304.686 1200.94L303.552 1185.38L306.802 1198.72C312.435 1192.94 321.394 1186.67 330.072 1180.6C335.755 1176.62 341.317 1172.73 345.746 1169.11Z" fill="white"/>
<path d="M464.945 1797.62H531.565C468.942 1659.12 387.432 1437.56 359.362 1168.92L345.746 1169.11C337.066 1232.02 369.97 1524.81 464.945 1797.62Z" fill="white"/>
<path fill-rule="evenodd" clip-rule="evenodd" d="M4951.58 772.073C4959.03 766.584 4966.37 761.184 4972.79 755.975L4993.92 756.284C5000.8 761.923 5009.46 767.981 5018.31 774.17C5031.75 783.567 5045.62 793.265 5054.33 802.256L5059.39 781.539L5057.61 805.683C5074.02 822.85 5088.52 840.109 5101.25 856.719L5106.34 835.848L5104.5 860.98C5117.01 877.621 5127.68 893.491 5136.63 907.91L5142.03 885.772L5140.01 913.374C5162.82 950.918 5173.31 977.007 5173.31 977.007C5164.02 843.073 5105.08 785.46 5055.68 760.637C5090.24 771.073 5123.39 782.774 5154.63 795.556L5147.67 754.709L5163.13 799.107C5205.57 816.86 5244.73 836.249 5280.15 855.886L5273.15 814.699L5289.25 860.949C5324.33 880.802 5355.58 900.747 5382.63 919.395L5375.21 875.707L5392.9 926.496C5462.45 975.494 5501.27 1013.78 5501.27 1013.78C5319.21 662.548 5069.29 714.171 5002.57 735.628C5002.23 733.714 5001.92 732.047 5001.68 730.781C5047.09 699.412 5093.03 672.829 5137.95 650.692L5103.09 628.709L5146.23 646.678C5187.69 626.641 5228.11 610.154 5266.25 596.661L5231.11 574.493L5276.1 593.203C5314.18 580.112 5349.75 569.924 5381.62 562.051L5344.33 538.524L5393.7 559.087C5476.34 539.543 5530.55 535.9 5530.55 535.9C5145.56 437.595 5018.39 664.771 4991.44 726.706H4989.32C5000.94 670.977 5016.52 618.49 5034.46 570.109L4994.1 578.26L5037.71 561.464C5054.15 518.239 5072.24 478.257 5090.73 442.04L5050.04 450.284L5095.51 432.747C5114.19 396.84 5133.08 364.823 5150.8 337.066L5107.69 345.804L5157.58 326.538C5204.22 255.125 5241.11 214.926 5241.11 214.926C4894.47 410.085 4957.24 663.042 4980 726.706H4979.54C4952.58 664.771 4825.42 437.595 4440.39 535.9C4440.39 535.9 4494.63 539.543 4577.28 559.087L4626.65 538.524L4589.36 562.051C4621.19 569.924 4656.79 580.112 4694.85 593.203L4739.83 574.493L4704.69 596.661C4742.84 610.154 4783.28 626.641 4824.71 646.678L4867.89 628.709L4833.02 650.692C4877.33 672.551 4922.66 698.733 4967.46 729.515L4967.38 730.214C4967.19 731.858 4967 733.485 4966.84 735.135C4897.85 713.43 4650.35 665.265 4469.67 1013.78C4469.67 1013.78 4508.53 975.494 4578.07 926.496L4595.74 875.707L4588.35 919.395C4615.39 900.747 4646.61 880.802 4681.72 860.949L4697.82 814.699L4690.83 855.886C4726.25 836.249 4765.41 816.86 4807.85 799.107L4823.3 754.709L4816.34 795.556C4846.09 783.392 4877.52 772.184 4910.27 762.15C4861.45 787.714 4804.63 845.635 4795.49 977.007C4795.49 977.007 4805.97 950.918 4828.79 913.374L4826.77 885.772L4832.16 907.91C4841.15 893.491 4851.79 877.621 4864.3 860.98L4862.46 835.848L4867.55 856.719C4880.28 840.109 4894.78 822.85 4911.19 805.683L4909.41 781.539L4914.47 802.256C4924.12 792.302 4938.05 782.039 4951.58 772.073Z" fill="white"/>
<path d="M4972.79 755.975C4924.45 1218.5 4774.04 1591.13 4674.83 1797.62H4785.03C4950.77 1356.66 5008.09 858.998 4993.92 756.284L4972.79 755.975Z" fill="white"/>
<path fill-rule="evenodd" clip-rule="evenodd" d="M4370.84 1169.11L4384.46 1168.92C4388.63 1172.32 4393.41 1175.84 4398.26 1179.41C4406.92 1185.79 4415.83 1192.35 4422.02 1198.72L4425.27 1185.38L4424.14 1200.94C4434.68 1211.99 4444.04 1223.11 4452.23 1233.82L4455.54 1220.36L4454.34 1236.57C4462.41 1247.28 4469.27 1257.54 4475.04 1266.8L4478.54 1252.53L4477.22 1270.32C4491.91 1294.52 4498.68 1311.32 4498.68 1311.32C4492.79 1226.69 4456.18 1189.36 4424.72 1172.88C4445.82 1179.36 4466.09 1186.59 4485.22 1194.43L4480.74 1168.12L4490.71 1196.71C4518.06 1208.14 4543.27 1220.64 4566.11 1233.27L4561.61 1206.75L4571.97 1236.54C4594.57 1249.35 4614.69 1262.17 4632.14 1274.21L4627.35 1246.05L4638.73 1278.78C4683.56 1310.33 4708.58 1335 4708.58 1335C4592.18 1110.48 4432.72 1141.51 4388.26 1155.49C4388.2 1154.69 4388.11 1153.92 4388.03 1153.13C4387.98 1152.71 4387.93 1152.28 4387.89 1151.85C4416.75 1132.03 4445.94 1115.17 4474.49 1101.09L4452.04 1086.92L4479.82 1098.5C4506.53 1085.59 4532.57 1074.97 4557.16 1066.27L4534.53 1051.97L4563.51 1064.07C4588.04 1055.61 4610.95 1049.04 4631.46 1043.97L4607.45 1028.82L4639.25 1042.06C4692.52 1029.46 4727.44 1027.12 4727.44 1027.12C4479.39 963.793 4397.46 1110.17 4380.1 1150.06H4379.79C4394.45 1109.06 4434.9 946.071 4211.57 820.349C4211.57 820.349 4235.33 846.222 4265.38 892.256L4297.55 904.637L4269.74 899.018C4281.18 916.925 4293.35 937.549 4305.37 960.675L4334.66 971.975L4308.47 966.664C4320.37 990.006 4332.02 1015.76 4342.6 1043.57L4370.69 1054.44L4344.71 1049.16C4356.27 1080.35 4366.3 1114.15 4373.78 1150.06H4372.43C4355.05 1110.17 4273.14 963.793 4025.09 1027.12C4025.09 1027.12 4060.02 1029.46 4113.26 1042.06L4145.05 1028.82L4121.04 1043.97C4141.56 1049.04 4164.5 1055.61 4189.03 1064.07L4218.01 1051.97L4195.34 1066.27C4219.94 1074.97 4245.97 1085.59 4272.68 1098.5L4300.49 1086.92L4278.05 1101.09C4306.96 1115.36 4336.59 1132.49 4365.81 1152.68L4365.62 1153.77L4365.26 1155.8C4322.27 1142 4161.25 1108.72 4043.95 1335C4043.95 1335 4068.98 1310.33 4113.78 1278.78L4125.18 1246.05L4120.4 1274.21C4137.82 1262.17 4157.93 1249.35 4180.56 1236.54L4190.93 1206.75L4186.42 1233.27C4209.24 1220.64 4234.47 1208.14 4261.8 1196.71L4271.76 1168.12L4267.28 1194.43C4287.43 1186.18 4308.77 1178.65 4331.04 1171.92C4299.21 1187.91 4261.24 1225.02 4255.23 1311.32C4255.23 1311.32 4262.01 1294.52 4276.7 1270.32L4275.38 1252.53L4278.88 1266.8C4284.64 1257.54 4291.54 1247.28 4299.57 1236.57L4298.38 1220.36L4301.69 1233.82C4309.88 1223.11 4319.23 1211.99 4329.78 1200.94L4328.65 1185.38L4331.9 1198.72C4337.53 1192.94 4346.49 1186.67 4355.17 1180.59C4360.85 1176.62 4366.41 1172.73 4370.84 1169.11Z" fill="white"/>
<path d="M4490.04 1797.62H4556.66C4494.04 1659.12 4412.53 1437.56 4384.46 1168.92L4370.84 1169.11C4362.16 1232.02 4395.06 1524.81 4490.04 1797.62Z" fill="white"/>
<line x1="1250.53" y1="3228.99" x2="468.951" y2="3228.99" stroke="white" stroke-width="10"/>
<line x1="4787.18" y1="3228.99" x2="4005.6" y2="3228.99" stroke="white" stroke-width="10"/>
<path d="M254.074 2061.02H950.459V2267.36H924.667C924.667 2197.72 911.77 2150 882.11 2121.63C857.607 2098.42 821.498 2086.81 769.914 2086.81H692.538V2891.52C692.538 2912.16 696.407 2927.63 705.434 2939.24C718.33 2956 738.964 2963.74 769.914 2963.74V2989.53H434.618V2963.74C461.7 2963.74 482.334 2957.29 495.23 2943.11C505.546 2931.5 511.994 2914.74 511.994 2894.1V2086.81H434.618C388.193 2086.81 352.084 2097.13 326.292 2120.34C295.341 2148.71 279.866 2196.43 279.866 2267.36H254.074V2061.02Z" fill="white"/>
<path d="M254.074 2061.02H950.459V2267.36H924.667C924.667 2197.72 911.77 2150 882.11 2121.63C857.607 2098.42 821.498 2086.81 769.914 2086.81H692.538V2891.52C692.538 2912.16 696.407 2927.63 705.434 2939.24C718.33 2956 738.964 2963.74 769.914 2963.74V2989.53H434.618V2963.74C461.7 2963.74 482.334 2957.29 495.23 2943.11C505.546 2931.5 511.994 2914.74 511.994 2894.1V2086.81H434.618C388.193 2086.81 352.084 2097.13 326.292 2120.34C295.341 2148.71 279.866 2196.43 279.866 2267.36H254.074V2061.02Z" fill="white"/>
<path d="M1369.18 2061.02C1589.7 2061.02 1768.95 2269.94 1768.95 2525.28C1768.95 2781.91 1589.7 2989.53 1369.18 2989.53C1147.36 2989.53 969.4 2781.91 969.4 2525.28C969.4 2269.94 1147.36 2061.02 1369.18 2061.02ZM1370.47 2086.81C1249.24 2088.1 1151.23 2284.12 1151.23 2525.28C1151.23 2767.72 1249.24 2963.74 1370.47 2963.74C1491.69 2963.74 1589.7 2767.72 1589.7 2525.28C1589.7 2284.12 1491.69 2086.81 1370.47 2086.81Z" fill="white"/>
<path d="M1369.18 2061.02C1589.7 2061.02 1768.95 2269.94 1768.95 2525.28C1768.95 2781.91 1589.7 2989.53 1369.18 2989.53C1147.36 2989.53 969.4 2781.91 969.4 2525.28C969.4 2269.94 1147.36 2061.02 1369.18 2061.02ZM1370.47 2086.81C1249.24 2088.1 1151.23 2284.12 1151.23 2525.28C1151.23 2767.72 1249.24 2963.74 1370.47 2963.74C1491.69 2963.74 1589.7 2767.72 1589.7 2525.28C1589.7 2284.12 1491.69 2086.81 1370.47 2086.81Z" fill="white"/>
<path d="M1897.56 2061.02H2232.86V2086.81C2205.77 2086.81 2185.14 2094.55 2172.24 2107.45C2160.64 2120.34 2155.48 2138.4 2155.48 2161.61V2551.07L2434.03 2155.16C2450.8 2128.08 2458.54 2110.03 2453.38 2099.71C2448.22 2090.68 2435.32 2086.81 2413.4 2086.81V2061.02H2682.89L2598.05 2078.33C2589.5 2080.07 2580.76 2080.64 2572.1 2081.75C2550.77 2084.47 2537.79 2093.82 2520.44 2103.58C2501.09 2115.18 2483.04 2133.24 2462.4 2159.03L2292.18 2401.48L2583.63 2863.15C2596.52 2885.08 2608.13 2901.84 2619.74 2914.74C2639.08 2937.95 2658.42 2952.14 2685.51 2963.74L2680.35 2989.53C2592.65 2989.53 2525.59 2989.53 2471.43 2966.32C2439.19 2952.14 2413.4 2928.92 2390.19 2892.81L2177.4 2562.68L2155.48 2594.92V2891.52C2155.48 2912.16 2159.35 2927.63 2168.38 2939.24C2181.27 2956 2201.91 2963.74 2232.86 2963.74V2989.53H1897.56V2963.74C1924.64 2963.74 1945.27 2957.29 1958.17 2943.11C1968.49 2931.5 1974.94 2914.74 1974.94 2894.1V2164.19C1974.94 2137.11 1965.91 2116.47 1950.43 2103.58C1938.83 2093.26 1920.77 2086.81 1897.56 2086.81V2061.02Z" fill="white"/>
<path d="M1897.56 2061.02H2232.86V2086.81C2205.77 2086.81 2185.14 2094.55 2172.24 2107.45C2160.64 2120.34 2155.48 2138.4 2155.48 2161.61V2551.07L2434.03 2155.16C2450.8 2128.08 2458.54 2110.03 2453.38 2099.71C2448.22 2090.68 2435.32 2086.81 2413.4 2086.81V2061.02H2682.89L2598.05 2078.33C2589.5 2080.07 2580.76 2080.64 2572.1 2081.75C2550.77 2084.47 2537.79 2093.82 2520.44 2103.58C2501.09 2115.18 2483.04 2133.24 2462.4 2159.03L2292.18 2401.48L2583.63 2863.15C2596.52 2885.08 2608.13 2901.84 2619.74 2914.74C2639.08 2937.95 2658.42 2952.14 2685.51 2963.74L2680.35 2989.53C2592.65 2989.53 2525.59 2989.53 2471.43 2966.32C2439.19 2952.14 2413.4 2928.92 2390.19 2892.81L2177.4 2562.68L2155.48 2594.92V2891.52C2155.48 2912.16 2159.35 2927.63 2168.38 2939.24C2181.27 2956 2201.91 2963.74 2232.86 2963.74V2989.53H1897.56V2963.74C1924.64 2963.74 1945.27 2957.29 1958.17 2943.11C1968.49 2931.5 1974.94 2914.74 1974.94 2894.1V2164.19C1974.94 2137.11 1965.91 2116.47 1950.43 2103.58C1938.83 2093.26 1920.77 2086.81 1897.56 2086.81V2061.02Z" fill="white"/>
<path d="M3510.82 2061.02H3763.58L4002.16 2507.22L4200.76 2137.11C4207.2 2124.21 4208.49 2110.03 4199.47 2099.71C4193.02 2091.97 4181.41 2086.81 4163.36 2086.81V2061.02H4412.13L4357.96 2072.07C4329.01 2077.98 4297.44 2077.08 4272.03 2092.15C4267.19 2095.02 4262.91 2098.11 4258.79 2101C4244.6 2110.03 4235.57 2125.5 4226.55 2144.85L4018.92 2530.44V2888.95C4018.92 2913.45 4024.08 2931.5 4035.69 2944.4C4048.58 2957.29 4069.22 2963.74 4096.3 2963.74V2989.53H3761V2963.74C3784.21 2963.74 3802.27 2958.58 3813.88 2948.27C3829.35 2935.37 3838.38 2914.74 3838.38 2886.37V2583.31L3613.99 2164.19C3601.09 2139.69 3588.2 2120.34 3572.72 2107.45C3555.96 2094.55 3441.41 2061.02 3415.62 2061.02H3510.82Z" fill="white"/>
<path d="M3510.82 2061.02H3763.58L4002.16 2507.22L4200.76 2137.11C4207.2 2124.21 4208.49 2110.03 4199.47 2099.71C4193.02 2091.97 4181.41 2086.81 4163.36 2086.81V2061.02H4412.13L4357.96 2072.07C4329.01 2077.98 4297.44 2077.08 4272.03 2092.15C4267.19 2095.02 4262.91 2098.11 4258.79 2101C4244.6 2110.03 4235.57 2125.5 4226.55 2144.85L4018.92 2530.44V2888.95C4018.92 2913.45 4024.08 2931.5 4035.69 2944.4C4048.58 2957.29 4069.22 2963.74 4096.3 2963.74V2989.53H3761V2963.74C3784.21 2963.74 3802.27 2958.58 3813.88 2948.27C3829.35 2935.37 3838.38 2914.74 3838.38 2886.37V2583.31L3613.99 2164.19C3601.09 2139.69 3588.2 2120.34 3572.72 2107.45C3555.96 2094.55 3441.41 2061.02 3415.62 2061.02H3510.82Z" fill="white"/>
<path d="M3211.58 2061.02H3239.95L3544.3 2912.16C3552.04 2930.21 3561.06 2941.82 3573.96 2950.85C3589.43 2959.87 3610.07 2963.74 3639.73 2963.74V2989.53H3379.23L3287.67 2731.61L3143.23 2329.26L2998.8 2731.61L2935.61 2910.87C2930.45 2926.34 2927.87 2937.95 2931.74 2946.98C2935.61 2958.58 2945.92 2963.74 2969.14 2963.74V2989.53H2814.38V2963.74C2845.33 2963.74 2865.97 2959.87 2882.73 2946.98C2893.05 2937.95 2902.08 2926.34 2908.53 2909.58L3211.58 2061.02Z" fill="white"/>
<path d="M3211.58 2061.02H3239.95L3544.3 2912.16C3552.04 2930.21 3561.06 2941.82 3573.96 2950.85C3589.43 2959.87 3610.07 2963.74 3639.73 2963.74V2989.53H3379.23L3287.67 2731.61L3143.23 2329.26L2998.8 2731.61L2935.61 2910.87C2930.45 2926.34 2927.87 2937.95 2931.74 2946.98C2935.61 2958.58 2945.92 2963.74 2969.14 2963.74V2989.53H2814.38V2963.74C2845.33 2963.74 2865.97 2959.87 2882.73 2946.98C2893.05 2937.95 2902.08 2926.34 2908.53 2909.58L3211.58 2061.02Z" fill="white"/>
<path d="M4585.56 2061.02H4613.93L4918.28 2912.16C4926.01 2930.21 4935.04 2941.82 4947.94 2950.85C4963.41 2959.87 4984.05 2963.74 5013.71 2963.74V2989.53H4753.21L4661.65 2731.61L4517.21 2329.26L4372.78 2731.61L4309.59 2910.87C4304.43 2926.34 4301.85 2937.95 4305.72 2946.98C4309.59 2958.58 4319.9 2963.74 4343.12 2963.74V2989.53H4188.36V2963.74C4219.31 2963.74 4239.95 2959.87 4256.71 2946.98C4267.03 2937.95 4276.06 2926.34 4282.5 2909.58L4585.56 2061.02Z" fill="white"/>
<path d="M4585.56 2061.02H4613.93L4918.28 2912.16C4926.01 2930.21 4935.04 2941.82 4947.94 2950.85C4963.41 2959.87 4984.05 2963.74 5013.71 2963.74V2989.53H4753.21L4661.65 2731.61L4517.21 2329.26L4372.78 2731.61L4309.59 2910.87C4304.43 2926.34 4301.85 2937.95 4305.72 2946.98C4309.59 2958.58 4319.9 2963.74 4343.12 2963.74V2989.53H4188.36V2963.74C4219.31 2963.74 4239.95 2959.87 4256.71 2946.98C4267.03 2937.95 4276.06 2926.34 4282.5 2909.58L4585.56 2061.02Z" fill="white"/>
<path d="M3294.96 2719.06C3300.47 2709.55 3304.31 2702.05 3306.5 2696.57C3306.49 2689.68 3305.32 2674.58 3300.72 2669.27C3301.07 2670.41 3300.89 2671.43 3300.18 2672.33C3277.53 2700.97 3243.62 2700.22 3213.05 2689.31C3146.47 2665.59 3060.72 2625.32 3006.31 2702.14C3005.84 2702.8 3005.45 2703.29 3005.15 2703.62C2993.61 2719.48 2980.95 2770.08 2975.93 2794.13C2982.02 2775.35 2987.8 2763.17 2993.26 2757.58C3003.82 2746.75 3017.03 2741.42 3032.9 2741.58C3051.53 2741.77 3067.94 2744.51 3082.15 2749.8C3119.6 2763.8 3149.48 2776.49 3185.24 2778.83C3232.1 2781.92 3268.71 2764.49 3294.96 2719.06Z" fill="white"/>
<path d="M3294.96 2719.06C3300.47 2709.55 3304.31 2702.05 3306.5 2696.57C3306.49 2689.68 3305.32 2674.58 3300.72 2669.27C3301.07 2670.41 3300.89 2671.43 3300.18 2672.33C3277.53 2700.97 3243.62 2700.22 3213.05 2689.31C3146.47 2665.59 3060.72 2625.32 3006.31 2702.14C3005.84 2702.8 3005.45 2703.29 3005.15 2703.62C2993.61 2719.48 2980.95 2770.08 2975.93 2794.13C2982.02 2775.35 2987.8 2763.17 2993.26 2757.58C3003.82 2746.75 3017.03 2741.42 3032.9 2741.58C3051.53 2741.77 3067.94 2744.51 3082.15 2749.8C3119.6 2763.8 3149.48 2776.49 3185.24 2778.83C3232.1 2781.92 3268.71 2764.49 3294.96 2719.06Z" fill="white"/>
<path d="M4644.02 2719.06C4649.21 2709.55 4652.83 2702.05 4654.89 2696.57C4654.88 2689.68 4653.78 2674.58 4649.44 2669.27C4649.78 2670.41 4649.61 2671.43 4648.94 2672.33C4627.62 2700.97 4595.7 2700.22 4566.93 2689.31C4504.27 2665.59 4423.56 2625.32 4372.35 2702.14C4371.91 2702.8 4371.55 2703.29 4371.27 2703.62C4360.4 2719.48 4348.49 2770.08 4343.76 2794.13C4349.49 2775.35 4354.93 2763.17 4360.08 2757.58C4370.01 2746.75 4382.44 2741.42 4397.38 2741.58C4414.91 2741.77 4430.36 2744.51 4443.73 2749.8C4478.98 2763.8 4507.1 2776.49 4540.76 2778.83C4584.87 2781.92 4619.32 2764.49 4644.02 2719.06Z" fill="white"/>
<path d="M4644.02 2719.06C4649.21 2709.55 4652.83 2702.05 4654.89 2696.57C4654.88 2689.68 4653.78 2674.58 4649.44 2669.27C4649.78 2670.41 4649.61 2671.43 4648.94 2672.33C4627.62 2700.97 4595.7 2700.22 4566.93 2689.31C4504.27 2665.59 4423.56 2625.32 4372.35 2702.14C4371.91 2702.8 4371.55 2703.29 4371.27 2703.62C4360.4 2719.48 4348.49 2770.08 4343.76 2794.13C4349.49 2775.35 4354.93 2763.17 4360.08 2757.58C4370.01 2746.75 4382.44 2741.42 4397.38 2741.58C4414.91 2741.77 4430.36 2744.51 4443.73 2749.8C4478.98 2763.8 4507.1 2776.49 4540.76 2778.83C4584.87 2781.92 4619.32 2764.49 4644.02 2719.06Z" fill="white"/>
</svg>
